# xmcd CD database file
#
# Track frame offsets:
#	150
#	14925
#	27451
#	42799
#	67578
#	82408
#	101037
#	112848
#	130180
#	142794
#
# Disc length: 2172 seconds
#
# Revision: 0
# Processed by: cddbd v1.5.2PL0 Copyright (c) Steve Scherf et al.
# Submitted via: Feurio! 1.68 - http://www.feurio.com
#
DISCID=82087a0a
DTITLE=Chip Taylor - This Side Of The Big River
DYEAR=1975
DGENRE=Country
TTITLE0=Same Ol' Story
TTITLE1=Holding Me Together
TTITLE2=Gettin' Older, Lookin' Back
TTITLE3=John Tucker's On The Wagon Again
TTITLE4=Big River
TTITLE5=May God Be With Me
TTITLE6=Circle Of Tears
TTITLE7=Sleepy Eyes
TTITLE8=I've Been Tied
TTITLE9=You're Alright, Charlie
EXTD=Collector's Choice (2006)\r\nall songs written by Chip Taylor, except 
EXTD='Big River' by Johnny Cash
EXTT0=
EXTT1=
EXTT2=
EXTT3=
EXTT4=
EXTT5=
EXTT6=
EXTT7=
EXTT8=
EXTT9=
PLAYORDER=
